<mxfile host="app.diagrams.net" agent="Mozilla/5.0 (Windows NT 6.1; Win64; x64) AppleWebKit/537.36 (KHTML, like Gecko) Chrome/109.0.0.0 Safari/537.36" version="28.2.5">
  <diagram name="Page-1" id="Gx4VcXRPvNwhr600lSLK">
    <mxGraphModel dx="905" dy="614" grid="1" gridSize="10" guides="1" tooltips="1" connect="1" arrows="1" fold="1" page="1" pageScale="1" pageWidth="850" pageHeight="1100" math="0" shadow="0">
      <root>
        <mxCell id="0" />
        <mxCell id="1" parent="0" />
        <mxCell id="8XuTefstECsqspFL0zBc-4" value="" style="rounded=0;whiteSpace=wrap;html=1;fillColor=none;strokeColor=#FF00FF;strokeWidth=3;" parent="1" vertex="1">
          <mxGeometry x="160" y="160" width="40" height="40" as="geometry" />
        </mxCell>
        <mxCell id="8XuTefstECsqspFL0zBc-5" value="" style="rounded=0;whiteSpace=wrap;html=1;fillColor=none;strokeColor=#CC00CC;strokeWidth=3;" parent="1" vertex="1">
          <mxGeometry x="200" y="160" width="40" height="40" as="geometry" />
        </mxCell>
        <mxCell id="8XuTefstECsqspFL0zBc-6" value="" style="rounded=0;whiteSpace=wrap;html=1;fillColor=none;strokeColor=#FF0000;strokeWidth=3;" parent="1" vertex="1">
          <mxGeometry x="240" y="160" width="40" height="40" as="geometry" />
        </mxCell>
        <mxCell id="8XuTefstECsqspFL0zBc-7" value="" style="rounded=0;whiteSpace=wrap;html=1;fillColor=none;strokeColor=#00CC00;strokeWidth=3;" parent="1" vertex="1">
          <mxGeometry x="280" y="160" width="40" height="40" as="geometry" />
        </mxCell>
        <mxCell id="8XuTefstECsqspFL0zBc-8" value="" style="rounded=0;whiteSpace=wrap;html=1;fillColor=none;strokeColor=#333333;strokeWidth=3;" parent="1" vertex="1">
          <mxGeometry x="320" y="160" width="40" height="40" as="geometry" />
        </mxCell>
        <mxCell id="8XuTefstECsqspFL0zBc-9" value="" style="rounded=0;whiteSpace=wrap;html=1;fillColor=none;strokeColor=#0000FF;strokeWidth=3;" parent="1" vertex="1">
          <mxGeometry x="360" y="160" width="40" height="40" as="geometry" />
        </mxCell>
        <mxCell id="8XuTefstECsqspFL0zBc-10" value="" style="rounded=0;whiteSpace=wrap;html=1;fillColor=none;strokeColor=#FFCC99;strokeWidth=3;" parent="1" vertex="1">
          <mxGeometry x="400" y="160" width="40" height="40" as="geometry" />
        </mxCell>
        <mxCell id="8XuTefstECsqspFL0zBc-23" value="" style="rounded=0;whiteSpace=wrap;html=1;fillColor=none;strokeColor=#FF00FF;strokeWidth=3;" parent="1" vertex="1">
          <mxGeometry x="320" y="280" width="40" height="40" as="geometry" />
        </mxCell>
        <mxCell id="8XuTefstECsqspFL0zBc-24" value="" style="rounded=0;whiteSpace=wrap;html=1;fillColor=none;strokeColor=#CC00CC;strokeWidth=3;" parent="1" vertex="1">
          <mxGeometry x="360" y="280" width="40" height="40" as="geometry" />
        </mxCell>
        <mxCell id="8XuTefstECsqspFL0zBc-25" value="" style="rounded=0;whiteSpace=wrap;html=1;fillColor=none;strokeColor=#FF0000;strokeWidth=3;" parent="1" vertex="1">
          <mxGeometry x="400" y="280" width="40" height="40" as="geometry" />
        </mxCell>
        <mxCell id="8XuTefstECsqspFL0zBc-27" value="" style="rounded=0;whiteSpace=wrap;html=1;fillColor=none;strokeColor=#333333;strokeWidth=3;" parent="1" vertex="1">
          <mxGeometry x="480" y="280" width="40" height="40" as="geometry" />
        </mxCell>
        <mxCell id="8XuTefstECsqspFL0zBc-28" value="" style="rounded=0;whiteSpace=wrap;html=1;fillColor=none;strokeColor=#0000FF;strokeWidth=3;" parent="1" vertex="1">
          <mxGeometry x="520" y="280" width="40" height="40" as="geometry" />
        </mxCell>
        <mxCell id="8XuTefstECsqspFL0zBc-29" value="" style="rounded=0;whiteSpace=wrap;html=1;fillColor=none;strokeColor=#FFCC99;strokeWidth=3;" parent="1" vertex="1">
          <mxGeometry x="560" y="280" width="40" height="40" as="geometry" />
        </mxCell>
        <mxCell id="8XuTefstECsqspFL0zBc-30" value="" style="rounded=0;whiteSpace=wrap;html=1;fillColor=none;strokeColor=#B3FF66;strokeWidth=3;" parent="1" vertex="1">
          <mxGeometry x="200" y="280" width="40" height="40" as="geometry" />
        </mxCell>
        <mxCell id="8XuTefstECsqspFL0zBc-31" value="" style="rounded=0;whiteSpace=wrap;html=1;fillColor=none;strokeColor=#6666FF;strokeWidth=3;" parent="1" vertex="1">
          <mxGeometry x="240" y="280" width="40" height="40" as="geometry" />
        </mxCell>
        <mxCell id="8XuTefstECsqspFL0zBc-32" value="" style="rounded=0;whiteSpace=wrap;html=1;fillColor=none;strokeColor=#FF66B3;strokeWidth=3;" parent="1" vertex="1">
          <mxGeometry x="280" y="280" width="40" height="40" as="geometry" />
        </mxCell>
        <mxCell id="8XuTefstECsqspFL0zBc-33" value="" style="rounded=0;whiteSpace=wrap;html=1;fillColor=none;strokeColor=#FF6666;strokeWidth=3;" parent="1" vertex="1">
          <mxGeometry x="80" y="280" width="40" height="40" as="geometry" />
        </mxCell>
        <mxCell id="8XuTefstECsqspFL0zBc-34" value="" style="rounded=0;whiteSpace=wrap;html=1;fillColor=none;strokeColor=#FFB366;strokeWidth=3;" parent="1" vertex="1">
          <mxGeometry x="120" y="280" width="40" height="40" as="geometry" />
        </mxCell>
        <mxCell id="8XuTefstECsqspFL0zBc-35" value="" style="rounded=0;whiteSpace=wrap;html=1;fillColor=none;strokeColor=#9933FF;strokeWidth=3;" parent="1" vertex="1">
          <mxGeometry x="160" y="280" width="40" height="40" as="geometry" />
        </mxCell>
        <mxCell id="8XuTefstECsqspFL0zBc-36" value="" style="endArrow=blockThin;html=1;rounded=0;endFill=1;strokeWidth=4;strokeColor=#0000FF;" parent="1" edge="1">
          <mxGeometry width="50" height="50" relative="1" as="geometry">
            <mxPoint x="180" y="270" as="sourcePoint" />
            <mxPoint x="180" y="210" as="targetPoint" />
          </mxGeometry>
        </mxCell>
        <mxCell id="8XuTefstECsqspFL0zBc-37" value="" style="endArrow=blockThin;html=1;rounded=0;endFill=1;strokeWidth=4;strokeColor=#0000FF;" parent="1" edge="1">
          <mxGeometry width="50" height="50" relative="1" as="geometry">
            <mxPoint x="219.76" y="270" as="sourcePoint" />
            <mxPoint x="219.76" y="210" as="targetPoint" />
          </mxGeometry>
        </mxCell>
        <mxCell id="8XuTefstECsqspFL0zBc-38" value="" style="endArrow=blockThin;html=1;rounded=0;endFill=1;strokeWidth=4;strokeColor=#0000FF;" parent="1" edge="1">
          <mxGeometry width="50" height="50" relative="1" as="geometry">
            <mxPoint x="260" y="270" as="sourcePoint" />
            <mxPoint x="260" y="210" as="targetPoint" />
          </mxGeometry>
        </mxCell>
        <mxCell id="8XuTefstECsqspFL0zBc-39" value="" style="endArrow=blockThin;html=1;rounded=0;endFill=1;strokeWidth=4;strokeColor=#0000FF;" parent="1" edge="1">
          <mxGeometry width="50" height="50" relative="1" as="geometry">
            <mxPoint x="299.76" y="270" as="sourcePoint" />
            <mxPoint x="299.76" y="210" as="targetPoint" />
          </mxGeometry>
        </mxCell>
        <mxCell id="8XuTefstECsqspFL0zBc-40" value="" style="endArrow=blockThin;html=1;rounded=0;endFill=1;strokeWidth=4;strokeColor=#0000FF;" parent="1" edge="1">
          <mxGeometry width="50" height="50" relative="1" as="geometry">
            <mxPoint x="340" y="270" as="sourcePoint" />
            <mxPoint x="340" y="210" as="targetPoint" />
          </mxGeometry>
        </mxCell>
        <mxCell id="8XuTefstECsqspFL0zBc-41" value="" style="endArrow=blockThin;html=1;rounded=0;endFill=1;strokeWidth=4;strokeColor=#0000FF;" parent="1" edge="1">
          <mxGeometry width="50" height="50" relative="1" as="geometry">
            <mxPoint x="379.76" y="270" as="sourcePoint" />
            <mxPoint x="379.76" y="210" as="targetPoint" />
          </mxGeometry>
        </mxCell>
        <mxCell id="8XuTefstECsqspFL0zBc-42" value="" style="endArrow=blockThin;html=1;rounded=0;endFill=1;strokeWidth=4;strokeColor=#0000FF;" parent="1" edge="1">
          <mxGeometry width="50" height="50" relative="1" as="geometry">
            <mxPoint x="425" y="270" as="sourcePoint" />
            <mxPoint x="425" y="210" as="targetPoint" />
          </mxGeometry>
        </mxCell>
        <mxCell id="8XuTefstECsqspFL0zBc-43" value="" style="endArrow=blockThin;html=1;rounded=0;endFill=1;strokeWidth=4;strokeColor=#00CC00;" parent="1" edge="1">
          <mxGeometry width="50" height="50" relative="1" as="geometry">
            <mxPoint x="460" y="270" as="sourcePoint" />
            <mxPoint x="500" y="120" as="targetPoint" />
          </mxGeometry>
        </mxCell>
        <mxCell id="8XuTefstECsqspFL0zBc-44" value="" style="verticalLabelPosition=bottom;shadow=0;dashed=0;align=center;html=1;verticalAlign=top;shape=mxgraph.electrical.logic_gates.logic_gate;operation=xor;strokeWidth=3;strokeColor=#00CC00;fillColor=none;" parent="1" vertex="1">
          <mxGeometry x="400" y="80" width="70" height="40" as="geometry" />
        </mxCell>
        <mxCell id="8XuTefstECsqspFL0zBc-26" value="" style="rounded=0;whiteSpace=wrap;html=1;fillColor=none;strokeColor=#00CC00;strokeWidth=3;" parent="1" vertex="1">
          <mxGeometry x="440" y="280" width="40" height="40" as="geometry" />
        </mxCell>
        <mxCell id="8XuTefstECsqspFL0zBc-46" value="" style="endArrow=none;html=1;rounded=0;strokeWidth=3;strokeColor=#00CC00;" parent="1" edge="1">
          <mxGeometry width="50" height="50" relative="1" as="geometry">
            <mxPoint x="179.86" y="160" as="sourcePoint" />
            <mxPoint x="179.86" y="90" as="targetPoint" />
          </mxGeometry>
        </mxCell>
        <mxCell id="8XuTefstECsqspFL0zBc-47" value="" style="endArrow=none;html=1;rounded=0;strokeWidth=3;strokeColor=#00CC00;" parent="1" edge="1">
          <mxGeometry width="50" height="50" relative="1" as="geometry">
            <mxPoint x="339.76" y="160" as="sourcePoint" />
            <mxPoint x="340" y="110" as="targetPoint" />
          </mxGeometry>
        </mxCell>
        <mxCell id="8XuTefstECsqspFL0zBc-48" value="" style="endArrow=none;html=1;rounded=0;exitX=0;exitY=0.25;exitDx=0;exitDy=0;exitPerimeter=0;strokeWidth=3;strokeColor=#00CC00;startArrow=blockThin;startFill=1;" parent="1" source="8XuTefstECsqspFL0zBc-44" edge="1">
          <mxGeometry width="50" height="50" relative="1" as="geometry">
            <mxPoint x="260" y="180" as="sourcePoint" />
            <mxPoint x="180" y="90" as="targetPoint" />
          </mxGeometry>
        </mxCell>
        <mxCell id="8XuTefstECsqspFL0zBc-49" value="" style="endArrow=none;html=1;rounded=0;strokeWidth=3;strokeColor=#00CC00;startArrow=blockThin;startFill=1;" parent="1" edge="1">
          <mxGeometry width="50" height="50" relative="1" as="geometry">
            <mxPoint x="400" y="110" as="sourcePoint" />
            <mxPoint x="340" y="110" as="targetPoint" />
          </mxGeometry>
        </mxCell>
        <mxCell id="8XuTefstECsqspFL0zBc-50" value="" style="endArrow=none;html=1;rounded=0;strokeWidth=3;strokeColor=#00CC00;startArrow=blockThin;startFill=1;exitX=0;exitY=0.25;exitDx=0;exitDy=0;exitPerimeter=0;" parent="1" edge="1">
          <mxGeometry width="50" height="50" relative="1" as="geometry">
            <mxPoint x="545" y="100.09" as="sourcePoint" />
            <mxPoint x="470" y="99.92" as="targetPoint" />
            <Array as="points">
              <mxPoint x="510" y="100.09" />
            </Array>
          </mxGeometry>
        </mxCell>
        <mxCell id="8XuTefstECsqspFL0zBc-51" value="" style="endArrow=none;html=1;rounded=0;strokeWidth=3;strokeColor=#00CC00;startArrow=blockThin;startFill=1;exitX=0;exitY=0.75;exitDx=0;exitDy=0;exitPerimeter=0;" parent="1" source="8XuTefstECsqspFL0zBc-45" edge="1">
          <mxGeometry width="50" height="50" relative="1" as="geometry">
            <mxPoint x="550" y="120.17" as="sourcePoint" />
            <mxPoint x="500" y="120" as="targetPoint" />
          </mxGeometry>
        </mxCell>
        <mxCell id="8XuTefstECsqspFL0zBc-52" value="&lt;font style=&quot;font-size: 18px; color: rgb(255, 0, 0);&quot;&gt;&lt;b&gt;&lt;i&gt;checker&lt;/i&gt;&lt;/b&gt;&lt;/font&gt;" style="text;html=1;align=center;verticalAlign=middle;whiteSpace=wrap;rounded=0;" parent="1" vertex="1">
          <mxGeometry x="550" y="60" width="60" height="30" as="geometry" />
        </mxCell>
        <mxCell id="8XuTefstECsqspFL0zBc-45" value="" style="verticalLabelPosition=bottom;shadow=0;dashed=0;align=center;html=1;verticalAlign=top;shape=mxgraph.electrical.logic_gates.logic_gate;operation=xor;strokeWidth=3;strokeColor=#FF0000;fillColor=none;" parent="1" vertex="1">
          <mxGeometry x="545" y="90" width="70" height="40" as="geometry" />
        </mxCell>
        <mxCell id="8XuTefstECsqspFL0zBc-53" value="" style="shape=flexArrow;endArrow=classic;html=1;rounded=0;strokeColor=#67AB9F;strokeWidth=3;" parent="1" edge="1">
          <mxGeometry width="50" height="50" relative="1" as="geometry">
            <mxPoint x="400" y="360" as="sourcePoint" />
            <mxPoint x="240" y="360" as="targetPoint" />
          </mxGeometry>
        </mxCell>
        <mxCell id="8XuTefstECsqspFL0zBc-54" value="&lt;div style=&quot;line-height: 20px; white-space: pre;&quot;&gt;&lt;font face=&quot;Helvetica&quot; style=&quot;color: rgb(0, 204, 0); font-size: 24px;&quot;&gt;&lt;b&gt;&lt;i&gt;rcvd_bits&lt;/i&gt;&lt;/b&gt;&lt;/font&gt;&lt;/div&gt;" style="text;html=1;align=center;verticalAlign=middle;whiteSpace=wrap;rounded=0;" parent="1" vertex="1">
          <mxGeometry x="300" y="370" width="60" height="30" as="geometry" />
        </mxCell>
        <mxCell id="8XuTefstECsqspFL0zBc-55" value="&lt;div style=&quot;line-height: 20px; white-space: pre;&quot;&gt;&lt;font face=&quot;Helvetica&quot; style=&quot;color: rgb(0, 204, 0); font-size: 24px;&quot;&gt;&lt;b&gt;&lt;i&gt;PRBS7&lt;/i&gt;&lt;/b&gt;&lt;/font&gt;&lt;/div&gt;" style="text;html=1;align=center;verticalAlign=middle;whiteSpace=wrap;rounded=0;" parent="1" vertex="1">
          <mxGeometry x="80" y="165" width="60" height="30" as="geometry" />
        </mxCell>
        <mxCell id="8XuTefstECsqspFL0zBc-56" value="&lt;font style=&quot;font-size: 18px;&quot;&gt;1&lt;/font&gt;" style="text;html=1;align=center;verticalAlign=middle;whiteSpace=wrap;rounded=0;" parent="1" vertex="1">
          <mxGeometry x="390" y="165" width="60" height="30" as="geometry" />
        </mxCell>
        <mxCell id="8XuTefstECsqspFL0zBc-57" value="&lt;font style=&quot;font-size: 18px;&quot;&gt;2&lt;/font&gt;" style="text;html=1;align=center;verticalAlign=middle;whiteSpace=wrap;rounded=0;" parent="1" vertex="1">
          <mxGeometry x="350" y="165" width="60" height="30" as="geometry" />
        </mxCell>
        <mxCell id="8XuTefstECsqspFL0zBc-58" value="&lt;font style=&quot;font-size: 18px;&quot;&gt;3&lt;/font&gt;" style="text;html=1;align=center;verticalAlign=middle;whiteSpace=wrap;rounded=0;" parent="1" vertex="1">
          <mxGeometry x="310" y="165" width="60" height="30" as="geometry" />
        </mxCell>
        <mxCell id="8XuTefstECsqspFL0zBc-59" value="&lt;font style=&quot;font-size: 18px;&quot;&gt;4&lt;/font&gt;" style="text;html=1;align=center;verticalAlign=middle;whiteSpace=wrap;rounded=0;" parent="1" vertex="1">
          <mxGeometry x="270" y="165" width="60" height="30" as="geometry" />
        </mxCell>
        <mxCell id="8XuTefstECsqspFL0zBc-60" value="&lt;font style=&quot;font-size: 18px;&quot;&gt;5&lt;/font&gt;" style="text;html=1;align=center;verticalAlign=middle;whiteSpace=wrap;rounded=0;" parent="1" vertex="1">
          <mxGeometry x="230" y="165" width="60" height="30" as="geometry" />
        </mxCell>
        <mxCell id="8XuTefstECsqspFL0zBc-61" value="&lt;font style=&quot;font-size: 18px;&quot;&gt;6&lt;/font&gt;" style="text;html=1;align=center;verticalAlign=middle;whiteSpace=wrap;rounded=0;" parent="1" vertex="1">
          <mxGeometry x="190" y="165" width="60" height="30" as="geometry" />
        </mxCell>
        <mxCell id="8XuTefstECsqspFL0zBc-62" value="&lt;font style=&quot;font-size: 18px;&quot;&gt;7&lt;/font&gt;" style="text;html=1;align=center;verticalAlign=middle;whiteSpace=wrap;rounded=0;" parent="1" vertex="1">
          <mxGeometry x="150" y="165" width="60" height="30" as="geometry" />
        </mxCell>
      </root>
    </mxGraphModel>
  </diagram>
</mxfile>
